<?xml version="1.0" encoding="UTF-8" standalone="no"?><!DOCTYPE svg PUBLIC "-//W3C//DTD SVG 1.1//EN" "http://www.w3.org/Graphics/SVG/1.1/DTD/svg11.dtd"><svg width="100%" height="100%" viewBox="0 0 45 45" version="1.1" xmlns="http://www.w3.org/2000/svg" xmlns:xlink="http://www.w3.org/1999/xlink" xml:space="preserve" xmlns:serif="http://www.serif.com/" style="fill-rule:evenodd;clip-rule:evenodd;stroke-linejoin:round;stroke-miterlimit:2;"><g><path d="M34.944,26.015l0,9.956c0,0.574 0.03,1.162 -0.047,1.732c0.026,-0.187 0.052,-0.375 0.078,-0.563c-0.06,0.412 -0.17,0.81 -0.33,1.194c0.073,-0.173 0.145,-0.345 0.217,-0.518c-0.161,0.374 -0.365,0.723 -0.61,1.048c0.114,-0.149 0.227,-0.298 0.34,-0.447c-0.247,0.319 -0.529,0.605 -0.845,0.857c0.149,-0.116 0.299,-0.233 0.449,-0.349c-0.338,0.262 -0.704,0.479 -1.098,0.648c0.181,-0.075 0.362,-0.151 0.543,-0.226c-0.405,0.168 -0.825,0.281 -1.26,0.339c0.195,-0.025 0.389,-0.051 0.584,-0.076c-0.514,0.062 -1.042,0.038 -1.559,0.038l-23.467,0c-0.533,0 -1.076,0.024 -1.605,-0.046c0.187,0.026 0.375,0.052 0.563,0.078c-0.412,-0.061 -0.81,-0.171 -1.194,-0.331c0.172,0.073 0.345,0.145 0.517,0.217c-0.373,-0.161 -0.722,-0.365 -1.047,-0.61c0.149,0.114 0.298,0.227 0.447,0.34c-0.319,-0.247 -0.605,-0.529 -0.857,-0.845c0.116,0.149 0.233,0.299 0.349,0.449c-0.263,-0.338 -0.479,-0.704 -0.648,-1.098c0.075,0.181 0.151,0.362 0.226,0.543c-0.168,-0.405 -0.281,-0.825 -0.339,-1.26c0.025,0.195 0.05,0.389 0.076,0.584c-0.062,-0.514 -0.039,-1.042 -0.039,-1.559l0,-23.467c0,-0.533 -0.023,-1.076 0.047,-1.605c-0.026,0.187 -0.052,0.375 -0.078,0.563c0.061,-0.412 0.171,-0.81 0.33,-1.194c-0.072,0.172 -0.144,0.345 -0.216,0.518c0.161,-0.374 0.364,-0.723 0.61,-1.048c-0.114,0.149 -0.227,0.298 -0.341,0.447c0.248,-0.319 0.53,-0.605 0.846,-0.857c-0.15,0.116 -0.299,0.233 -0.449,0.349c0.338,-0.262 0.704,-0.479 1.097,-0.648c-0.181,0.075 -0.362,0.151 -0.543,0.226c0.405,-0.168 0.826,-0.281 1.261,-0.339c-0.195,0.025 -0.389,0.051 -0.584,0.076c0.845,-0.101 1.727,-0.038 2.575,-0.038l8.946,-0c1.195,-0 2.202,-0.978 2.21,-2.179c0.008,-1.189 -0.984,-2.21 -2.179,-2.21l-10.565,0c-0.607,0 -1.199,0.048 -1.802,0.154c-0.696,0.122 -1.386,0.413 -2.002,0.75c-0.605,0.331 -1.172,0.786 -1.644,1.289c-1.278,1.365 -1.907,3.138 -1.907,4.994l-0,24.956c-0,0.485 0.058,0.957 0.122,1.44c0.094,0.708 0.377,1.395 0.692,2.029c0.307,0.619 0.759,1.192 1.242,1.682c1.343,1.361 3.211,2.039 5.102,2.039l24.957,-0c0.251,-0 0.501,-0.004 0.752,-0.03c0.435,-0.046 0.873,-0.099 1.297,-0.211c0.438,-0.115 0.864,-0.306 1.274,-0.49c0.634,-0.283 1.21,-0.729 1.718,-1.193c1.012,-0.923 1.765,-2.275 2.02,-3.618c0.114,-0.595 0.157,-1.179 0.157,-1.779l-0,-10.669c-0,-1.196 -0.977,-2.203 -2.178,-2.21c-1.19,-0.008 -2.211,0.983 -2.211,2.178Z" style="fill:#00ffa6;fill-rule:nonzero;"/></g><g><path d="M24.384,4.389c1.819,0.001 3.637,0.003 5.456,0.005c3.054,0.002 6.107,0.005 9.16,0.008c0.942,0.001 1.885,0.002 2.827,0.003c1.195,0.001 2.202,-0.979 2.21,-2.179c0.008,-1.19 -0.983,-2.209 -2.179,-2.21c-1.818,-0.002 -3.637,-0.003 -5.456,-0.005c-3.053,-0.003 -6.106,-0.006 -9.16,-0.008c-0.942,-0.001 -1.884,-0.002 -2.826,-0.003c-1.196,-0.001 -2.203,0.978 -2.21,2.179c-0.008,1.189 0.983,2.208 2.178,2.21Z" style="fill:#00ffa6;fill-rule:nonzero;"/></g><g><path d="M44.021,19.653c0.001,-1.819 0.003,-3.637 0.005,-5.456c0.003,-3.054 0.005,-6.107 0.008,-9.16c0.001,-0.942 0.002,-1.885 0.003,-2.827c0.001,-1.195 -0.978,-2.202 -2.179,-2.21c-1.19,-0.008 -2.209,0.983 -2.21,2.179c-0.001,1.818 -0.003,3.637 -0.005,5.456c-0.003,3.053 -0.005,6.107 -0.008,9.16c-0.001,0.942 -0.002,1.884 -0.003,2.826c-0.001,1.196 0.978,2.203 2.179,2.211c1.19,0.007 2.209,-0.984 2.21,-2.179Z" style="fill:#00ffa6;fill-rule:nonzero;"/></g><g><path d="M18.736,28.382c0.75,-0.75 1.501,-1.5 2.251,-2.25c1.826,-1.824 3.651,-3.648 5.477,-5.471c2.261,-2.26 4.523,-4.519 6.784,-6.779c2.059,-2.057 4.118,-4.114 6.177,-6.17c1.216,-1.216 2.433,-2.432 3.65,-3.648c0.109,-0.109 0.218,-0.218 0.327,-0.327c0.845,-0.843 0.831,-2.266 -0.016,-3.102c-0.854,-0.844 -2.257,-0.829 -3.103,0.016c-0.751,0.75 -1.501,1.5 -2.252,2.25c-1.825,1.823 -3.651,3.647 -5.476,5.471c-2.262,2.26 -4.523,4.519 -6.785,6.779c-2.059,2.056 -4.118,4.113 -6.176,6.17c-1.217,1.216 -2.434,2.432 -3.651,3.648c-0.109,0.108 -0.218,0.217 -0.327,0.326c-0.845,0.844 -0.83,2.267 0.017,3.103c0.853,0.843 2.256,0.829 3.103,-0.016Z" style="fill:#00ffa6;fill-rule:nonzero;"/></g></svg>