<?xml version="1.0" encoding="UTF-8" standalone="no"?><!DOCTYPE svg PUBLIC "-//W3C//DTD SVG 1.1//EN" "http://www.w3.org/Graphics/SVG/1.1/DTD/svg11.dtd"><svg width="100%" height="100%" viewBox="0 0 54 92" version="1.1" xmlns="http://www.w3.org/2000/svg" xmlns:xlink="http://www.w3.org/1999/xlink" xml:space="preserve" xmlns:serif="http://www.serif.com/" style="fill-rule:evenodd;clip-rule:evenodd;stroke-linecap:round;stroke-linejoin:round;stroke-miterlimit:1.5;"><path d="M39.078,10.277l1.593,-0.128l0.717,8.926l-1.593,0.128l-0.717,-8.926Z" style="fill:#0e0a34;stroke:#00ffa6;stroke-width:1px;"/><path d="M43.704,76.677l-0.244,6.597l-1.602,0.815l-3.774,-6.597l5.62,-0.815Z" style="fill:#0e0a34;"/><path d="M46.189,76.769c0.027,-0.737 -0.275,-1.448 -0.823,-1.941c-0.549,-0.493 -1.288,-0.717 -2.018,-0.611l-5.62,0.814c-0.814,0.118 -1.518,0.632 -1.878,1.371c-0.361,0.74 -0.332,1.61 0.077,2.324l3.773,6.597c0.658,1.151 2.103,1.583 3.285,0.982l1.602,-0.815c0.804,-0.409 1.324,-1.222 1.357,-2.124l0.245,-6.597Zm-2.485,-0.092l-0.244,6.597l-1.602,0.815l-3.774,-6.597l5.62,-0.815Z" style="fill:#00ffa6;"/><path d="M15.779,63.4c-3.27,0 -6.184,4.177 -6.504,9.321c-0.32,5.145 2.074,9.321 5.344,9.321c3.27,0 6.184,-4.176 6.504,-9.321c0.32,-5.144 -2.074,-9.321 -5.344,-9.321Z" style="fill:#0e0a34;"/><path d="M15.779,60.914c-1.951,0 -3.863,0.906 -5.431,2.594c-1.903,2.048 -3.322,5.332 -3.554,9.059c-0.237,3.799 0.822,7.146 2.502,9.234c1.42,1.765 3.283,2.727 5.323,2.727c1.952,0 3.863,-0.905 5.431,-2.593c1.903,-2.049 3.322,-5.332 3.554,-9.059c0.237,-3.8 -0.822,-7.146 -2.502,-9.235c-1.42,-1.764 -3.283,-2.727 -5.323,-2.727Zm-0,2.486c-3.27,0 -6.184,4.177 -6.504,9.321c-0.32,5.145 2.074,9.321 5.344,9.321c3.27,0 6.184,-4.176 6.504,-9.321c0.32,-5.144 -2.074,-9.321 -5.344,-9.321Z" style="fill:#00ffa6;"/><path d="M41.388,17.322l-0.869,-13.974l-0.999,-1.903l-12.619,-0.195l-1.542,1.26l-2.867,14.086l2.232,0.444l0.939,-0.444l12.793,0l0.13,0.813l2.802,-0.087Z" style="fill:#0e0a34;stroke:#00ffa6;stroke-width:2.5px;"/><path d="M39.796,14.972l-8.901,-0.567l5.142,-2.219c-0,-0 -16.115,-1.072 -17.867,-0.516c-1.546,0.491 -5.328,6.995 -6.188,8.796c-0.27,0.566 0.111,1.496 0.675,1.863c-3.241,3.57 -6.388,7.386 -7.205,9.546c-1.176,3.106 -4.209,45.155 -4.209,45.155c-0,-0 26.962,5.012 29.462,5.012c5.307,0 15.044,-5.211 15.044,-5.211c-0,-0 1.202,-40.625 -0,-46.696c-0.485,-2.448 -5.953,-15.163 -5.953,-15.163Z" style="fill:#0e0a34;stroke:#00ffa6;stroke-width:2.49px;"/><path d="M37.465,14.828l-1.428,-2.642c-0,-0 -16.115,-1.072 -17.867,-0.516c-1.546,0.491 -5.328,6.995 -6.188,8.796c-0.324,0.68 0.29,1.882 1.032,2.009c2.751,0.471 12.527,0.932 15.475,0.815c0.895,-0.036 1.756,-0.752 2.216,-1.521c1.026,-1.714 2.812,-7.612 3.939,-8.769c0.781,-0.803 2.821,1.828 2.821,1.828Z" style="fill:#0e0a34;stroke:#00ffa6;stroke-width:1px;"/><path d="M30.705,82.042c-0,0 1.397,-37.668 1.235,-47.457c-0.063,-3.829 -2.206,-11.277 -2.206,-11.277" style="fill:#0e0a34;stroke:#00ffa6;stroke-width:1px;"/><path d="M45.689,70.36c-3.269,-0 -6.184,4.176 -6.504,9.321c-0.32,5.144 2.075,9.321 5.344,9.321c3.27,-0 6.184,-4.177 6.504,-9.321c0.32,-5.145 -2.074,-9.321 -5.344,-9.321Z" style="fill:#0e0a34;"/><path d="M45.689,67.874c-1.951,-0 -3.863,0.905 -5.431,2.593c-1.903,2.049 -3.322,5.332 -3.554,9.06c-0.236,3.799 0.822,7.145 2.503,9.234c1.419,1.764 3.282,2.727 5.322,2.727c1.952,-0 3.863,-0.906 5.431,-2.593c1.904,-2.049 3.322,-5.333 3.554,-9.06c0.237,-3.799 -0.822,-7.145 -2.502,-9.234c-1.42,-1.764 -3.283,-2.727 -5.323,-2.727Zm0,2.486c-3.269,-0 -6.184,4.176 -6.504,9.321c-0.32,5.144 2.075,9.321 5.344,9.321c3.27,-0 6.184,-4.177 6.504,-9.321c0.32,-5.145 -2.074,-9.321 -5.344,-9.321Z" style="fill:#00ffa6;"/></svg>