<?xml version="1.0" encoding="UTF-8" standalone="no"?><!DOCTYPE svg PUBLIC "-//W3C//DTD SVG 1.1//EN" "http://www.w3.org/Graphics/SVG/1.1/DTD/svg11.dtd"><svg width="100%" height="100%" viewBox="0 0 145 98" version="1.1" xmlns="http://www.w3.org/2000/svg" xmlns:xlink="http://www.w3.org/1999/xlink" xml:space="preserve" xmlns:serif="http://www.serif.com/" style="fill-rule:evenodd;clip-rule:evenodd;stroke-linecap:round;stroke-linejoin:round;stroke-miterlimit:1.5;"><g transform="matrix(0.219186,0,0,0.219186,55.3349,-21.5722)"><text x="86.529px" y="226.127px" style="font-family:'Redwing-Medium', 'Redwing';font-weight:500;font-size:154.196px;fill:#00ffa6;">Sh<tspan x="234.402px " y="226.127px ">o</tspan>p</text><text x="86.529px" y="380.322px" style="font-family:'Redwing-Medium', 'Redwing';font-weight:500;font-size:154.196px;fill:#00ffa6;">Must</text><text x="86.529px" y="534.518px" style="font-family:'Redwing-Medium', 'Redwing';font-weight:500;font-size:154.196px;fill:#00ffa6;">Go On</text></g><path d="M41.611,10.882l1.7,-0.137l0.765,9.523l-1.701,0.137l-0.764,-9.523Z" style="fill:#0e0a34;stroke:#00ffa6;stroke-width:1px;"/><path d="M46.547,81.727l-0.261,7.039l-1.709,0.869l-4.026,-7.039l5.996,-0.869Z" style="fill:#0e0a34;"/><path d="M49.031,81.819c0.027,-0.737 -0.274,-1.449 -0.823,-1.941c-0.548,-0.493 -1.288,-0.717 -2.018,-0.611l-5.996,0.869c-0.814,0.118 -1.517,0.631 -1.878,1.37c-0.36,0.74 -0.332,1.61 0.077,2.324l4.026,7.039c0.658,1.151 2.103,1.582 3.285,0.982l1.709,-0.869c0.804,-0.409 1.324,-1.222 1.357,-2.124l0.261,-7.039Zm-2.484,-0.092l-0.261,7.039l-1.709,0.869l-4.026,-7.039l5.996,-0.869Z" style="fill:#00ffa6;"/><path d="M16.752,67.561c-3.488,-0 -6.598,4.456 -6.939,9.945c-0.342,5.489 2.213,9.945 5.702,9.945c3.488,-0 6.597,-4.456 6.939,-9.945c0.341,-5.489 -2.213,-9.945 -5.702,-9.945Z" style="fill:#0e0a34;"/><path d="M16.752,65.075c-2.039,-0 -4.034,0.95 -5.672,2.714c-2.009,2.162 -3.504,5.629 -3.748,9.563c-0.25,4.006 0.861,7.535 2.633,9.737c1.481,1.841 3.422,2.848 5.55,2.848c2.039,-0 4.034,-0.95 5.672,-2.714c2.009,-2.162 3.503,-5.629 3.748,-9.563c0.249,-4.006 -0.862,-7.535 -2.634,-9.738c-1.48,-1.84 -3.421,-2.847 -5.549,-2.847Zm0,2.486c-3.488,-0 -6.598,4.456 -6.939,9.945c-0.342,5.489 2.213,9.945 5.702,9.945c3.488,-0 6.597,-4.456 6.939,-9.945c0.341,-5.489 -2.213,-9.945 -5.702,-9.945Z" style="fill:#00ffa6;"/><path d="M44.076,18.398l-0.927,-14.91l-1.066,-2.029l-13.464,-0.209l-1.646,1.344l-3.058,15.03l2.381,0.473l1.002,-0.473l13.649,-0l0.139,0.867l2.99,-0.093Z" style="fill:#0e0a34;stroke:#00ffa6;stroke-width:2.5px;"/><path d="M42.377,15.891l-9.497,-0.606l5.486,-2.367c0,-0 -17.193,-1.143 -19.063,-0.55c-1.649,0.523 -5.685,7.463 -6.602,9.385c-0.288,0.604 0.119,1.595 0.72,1.987c-3.458,3.809 -6.815,7.88 -7.687,10.185c-1.255,3.314 -4.491,48.178 -4.491,48.178c-0,0 28.767,5.348 31.434,5.348c5.662,-0 16.051,-5.56 16.051,-5.56c0,-0 1.283,-43.345 0,-49.823c-0.517,-2.611 -6.351,-16.177 -6.351,-16.177Z" style="fill:#0e0a34;stroke:#00ffa6;stroke-width:2.49px;"/><path d="M39.89,15.737l-1.524,-2.819c0,-0 -17.193,-1.143 -19.063,-0.55c-1.649,0.523 -5.685,7.463 -6.602,9.385c-0.346,0.725 0.309,2.008 1.101,2.143c2.935,0.502 13.365,0.995 16.511,0.869c0.955,-0.038 1.874,-0.802 2.364,-1.622c1.095,-1.83 3.001,-8.122 4.203,-9.356c0.834,-0.857 3.01,1.95 3.01,1.95Z" style="fill:#0e0a34;stroke:#00ffa6;stroke-width:1px;"/><path d="M32.677,87.451c0,-0 1.491,-40.19 1.318,-50.634c-0.067,-4.086 -2.354,-12.032 -2.354,-12.032" style="fill:#0e0a34;stroke:#00ffa6;stroke-width:1px;"/><path d="M48.665,74.987c-3.489,-0 -6.598,4.456 -6.94,9.945c-0.341,5.488 2.214,9.945 5.702,9.945c3.489,-0 6.598,-4.457 6.94,-9.945c0.341,-5.489 -2.214,-9.945 -5.702,-9.945Z" style="fill:#0e0a34;"/><path d="M48.665,72.501c-2.039,-0 -4.035,0.95 -5.673,2.713c-2.009,2.163 -3.503,5.629 -3.748,9.563c-0.249,4.006 0.862,7.536 2.634,9.738c1.48,1.84 3.422,2.848 5.549,2.848c2.039,-0 4.034,-0.951 5.673,-2.714c2.009,-2.163 3.503,-5.629 3.748,-9.563c0.249,-4.006 -0.862,-7.536 -2.634,-9.738c-1.481,-1.84 -3.422,-2.847 -5.549,-2.847Zm-0,2.486c-3.489,-0 -6.598,4.456 -6.94,9.945c-0.341,5.488 2.214,9.945 5.702,9.945c3.489,-0 6.598,-4.457 6.94,-9.945c0.341,-5.489 -2.214,-9.945 -5.702,-9.945Z" style="fill:#00ffa6;"/></svg>